<svg width="132" height="240" data-name="Camada 1" version="1.1" viewBox="0 0 263.27 283.01" xmlns="http://www.w3.org/2000/svg">
 <defs>
  <style>.cls-1{fill:none;}.cls-2{fill:#00ffb0;}.cls-3{fill:#05b075;}</style>
 </defs>
 <g fill="#00ffb0">
  <polygon class="cls-2" transform="translate(-323.93,-121.27)" points="354.7 387.54 354.7 377.11 337.02 377.11 337.02 365.75 358.23 365.75 358.23 354.75 323.93 354.75 323.93 403.63 359.22 403.63 359.22 392.63 337.02 392.63 337.02 387.54"/>
  <path class="cls-2" d="m45.66 232.97c0.06-0.5 0.34-0.42 0.63-0.06l23.44 26.31 23.08-26.31c0.29-0.36 0.58-0.44 0.65 0.06l2.87 49.39h-12.87l-1.14-20.84-12.25 14.21a0.4 0.4 0 0 1-0.65 0l-12.73-14.23-1.15 20.91h-12.77z"/>
  <path class="cls-2" d="m103.24 257.93c0-14.75 12.15-25 26.24-25s26.24 10.27 26.24 25-12.15 25.08-26.24 25.08-26.24-10.35-26.24-25.08m39.11 0c0-7.7-4.68-13.67-12.87-13.67s-12.87 6-12.87 13.67 4.67 13.72 12.87 13.72 12.87-6 12.87-13.72"/>
  <polygon class="cls-2" transform="translate(-323.93,-121.27)" points="521.85 365.75 521.85 354.75 482.89 354.75 482.89 365.75 495.82 365.75 495.82 403.63 508.9 403.63 508.9 365.75"/>
  <path class="cls-2" d="m207.62 282.36h-12.8l23.8-49.74c0.22-0.51 0.65-0.51 0.87 0l23.72 49.74h-13.52l-1.86-4.16h-18.41zm10.86-25.3-4.89 11.36h9.92z"/>
  <rect class="cls-2" x="250.19" y="233.48" width="13.08" height="48.88"/>
  <path class="cls-2" d="m191.62 77.21a27.39 27.39 0 0 1-39.12-38.21 2.6346 2.6346 0 1 1 4 3.43 22.15 22.15 0 0 0 31.57 30.9 2.61 2.61 0 0 1 3.7 0.19 2.64 2.64 0 0 1-0.19 3.69m-2 49.31a2.63 2.63 0 0 1-3.7 0.28 22.15 22.15 0 0 0-30.81 31.62 2.62 2.62 0 0 1-1.95 4.38 2.51 2.51 0 0 1-1.92-0.86 27.38 27.38 0 0 1 38.19-39.1 2.6 2.6 0 0 1 0.28 3.68m18.81-53.36a16 16 0 0 0-4.79-11.43l-1.9-1.9a16 16 0 0 0-11.41-4.74 16.18 16.18 0 0 0-6.91 1.55 8.82 8.82 0 0 1-11.27-3.23 8.73 8.73 0 0 1-0.6-8.43l0.19-0.43a16.21 16.21 0 0 0-3.31-18l-1.83-1.82a16 16 0 0 0-11.43-4.74h-4a16 16 0 0 0-9 2.76l-10.56 7.1v66.88h20.32l-20.32 38.08v34.09l9.95 6.7a18.47 18.47 0 0 0 10.35 3.13h2.26a18.56 18.56 0 0 0 16.78-26.48 8.09 8.09 0 0 1 0.47-7.9 8.37 8.37 0 0 1 10.36-3.15l2 0.9a16.15 16.15 0 0 0 18.06-3.33l1.82-1.81a16.17 16.17 0 0 0-2.09-24.64 15.92 15.92 0 0 1 0-26 16.2 16.2 0 0 0 6.85-13.2"/>
  <path class="cls-2" d="m204.62 108.07a21.41 21.41 0 0 1 2.77 32.66l-1.83 1.82a21.24 21.24 0 0 1-15.12 6.18 21.55 21.55 0 0 1-8.77-1.86l-2-0.9a3 3 0 0 0-3.8 1.16 2.85 2.85 0 0 0-0.15 2.87 23.78 23.78 0 0 1-21.53 33.95h-2.26a23.67 23.67 0 0 1-13.28-4l-9.67-6.49-10.25 6.89a21.24 21.24 0 0 1-11.95 3.64h-4a21.29 21.29 0 0 1-15.08-6.26l-1.84-1.83a21.52 21.52 0 0 1-4.38-23.89l0.19-0.44a3.51 3.51 0 0 0-0.24-3.44 3.65 3.65 0 0 0-4.62-1.34 21 21 0 0 1-9.14 2 21.3 21.3 0 0 1-15.13-6.25l-1.89-1.9a21.41 21.41 0 0 1 2.77-32.61 10.67 10.67 0 0 0 0-17.44 21.4 21.4 0 0 1-2.77-32.6l1.83-1.84a21.43 21.43 0 0 1 23.89-4.39l2 0.89a3 3 0 0 0 3.79-1.16 2.93 2.93 0 0 0 0.16-2.86 23.89 23.89 0 0 1 4.69-27 23.65 23.65 0 0 1 16.84-7h2.22a23.78 23.78 0 0 1 13.29 4l9.65 6.5 10.25-6.89a21.26 21.26 0 0 1 11.96-3.51h4a21.3 21.3 0 0 1 15.13 6.26l1.83 1.82a21.51 21.51 0 0 1 4.38 23.9l-0.18 0.43a3.51 3.51 0 0 0 0.22 3.44 3.68 3.68 0 0 0 4.64 1.35 21.36 21.36 0 0 1 24.24 4.21l1.91 1.91a21.19 21.19 0 0 1 6.27 15.12 21.43 21.43 0 0 1-9 17.48 10.68 10.68 0 0 0 0 17.44m12.68-8.72a36.3 36.3 0 0 0 11.21-26.2 36.59 36.59 0 0 0-10.62-25.63l-1.9-1.89a36 36 0 0 0-22.86-10.51 36.38 36.38 0 0 0-10.46-22.81l-1.82-1.81a35.9 35.9 0 0 0-22.64-10.49h-10a36 36 0 0 0-17.25 6l-2 1.32-1.41-0.94a38.43 38.43 0 0 0-18.46-6.41h-8.37a38.79 38.79 0 0 0-24.28 11.17 38.36 38.36 0 0 0-11.18 24 36 36 0 0 0-23.32 10.56l-1.81 1.81a36.22 36.22 0 0 0 0.59 51.82 36.24 36.24 0 0 0-11.21 26.2 36.2 36.2 0 0 0 10.62 25.63l1.88 1.89a36 36 0 0 0 22.87 10.52 36.46 36.46 0 0 0 10.44 22.81l1.84 1.81a35.94 35.94 0 0 0 25.63 10.63h4a36.24 36.24 0 0 0 20.24-6.2l2-1.33 2 1.34a36.24 36.24 0 0 0 20.21 6.17h4a36 36 0 0 0 25.63-10.63l1.89-1.88a36.29 36.29 0 0 0 10.49-22.82 36 36 0 0 0 22.78-10.51l1.83-1.83a36.07 36.07 0 0 0 10.62-25.62 36.13 36.13 0 0 0-11.21-26.19"/>
 </g>
 <path class="cls-3" d="m82.07 114.51a27.37 27.37 0 0 1 23.41 45.14 2.58 2.58 0 0 1-2 0.92 2.51 2.51 0 0 1-1.7-0.64 2.57 2.57 0 0 1-0.27-3.69 22.15 22.15 0 0 0-31.64-30.9 2.56 2.56 0 0 1-1.75 0.69 2.62 2.62 0 0 1-1.76-4.56 27.25 27.25 0 0 1 15.69-7m-13.69-42.36a2.61 2.61 0 0 1 3.69-0.27 21.93 21.93 0 0 0 14.49 5.39 22.14 22.14 0 0 0 16.41-37 2.62 2.62 0 0 1 3.89-3.51 27.39 27.39 0 0 1-38.21 39.11 2.61 2.61 0 0 1-0.27-3.69m58 29.83h-20.35l20.35-38.08v-34.1l-10-6.69a18.35 18.35 0 0 0-10.29-3.16h-2.26a18.42 18.42 0 0 0-13.13 5.44 18.63 18.63 0 0 0-3.67 21 8.06 8.06 0 0 1-0.46 7.9 8.39 8.39 0 0 1-10.36 3.14l-2-0.89a15.86 15.86 0 0 0-6.61-1.44 16 16 0 0 0-11.43 4.76l-1.8 1.88a16 16 0 0 0-4.73 11.42 16.26 16.26 0 0 0 6.81 13.21 15.87 15.87 0 0 1 0 26 16.19 16.19 0 0 0-2.11 24.65l1.9 1.9a16.14 16.14 0 0 0 18.32 3.18 8.71 8.71 0 0 1 3.82-0.87 8.92 8.92 0 0 1 7.43 4.1 8.66 8.66 0 0 1 0.63 8.42l-0.19 0.45a16.23 16.23 0 0 0 3.31 18l1.83 1.84a16.15 16.15 0 0 0 11.46 4.7h4a15.81 15.81 0 0 0 9-2.76l10.58-7.11v-66.88z" fill="#05b075"/>
</svg>
